<?xml version="1.0" standalone="no"?>
<!DOCTYPE svg PUBLIC "-//W3C//DTD SVG 20010904//EN"
 "http://www.w3.org/TR/2001/REC-SVG-20010904/DTD/svg10.dtd">
<svg version="1.0" xmlns="http://www.w3.org/2000/svg"
 width="250.000000pt" height="250.000000pt" viewBox="0 0 250.000000 250.000000"
 preserveAspectRatio="xMidYMid meet">
<metadata>
Created by potrace 1.11, written by Peter Selinger 2001-2013
</metadata>
<g transform="translate(0.000000,250.000000) scale(0.100000,-0.100000)"
fill="#000000" stroke="none">
<path d="M1268 2295 c-2 -3 -31 -10 -64 -16 -32 -6 -63 -14 -69 -18 -5 -5 -32
-13 -59 -20 -59 -14 -138 -53 -188 -92 -20 -16 -50 -32 -66 -35 -37 -8 -77
-47 -69 -68 4 -9 3 -16 -2 -16 -11 0 -56 -99 -48 -106 3 -4 22 -3 43 0 20 4
33 10 30 13 -3 3 2 12 12 19 20 16 98 18 107 4 8 -12 16 -12 34 -1 11 7 10 14
-6 37 -11 16 -23 38 -27 50 -8 27 3 56 18 47 11 -7 16 -9 35 -12 5 0 11 -8 14
-15 4 -10 1 -13 -9 -9 -7 3 -14 10 -14 16 0 6 -3 8 -6 5 -3 -4 2 -18 11 -32
18 -26 9 -36 -13 -14 -6 6 -14 9 -18 6 -9 -9 56 -68 83 -74 13 -4 23 -11 23
-16 0 -6 -7 -7 -16 -4 -14 5 -15 4 -5 -8 7 -8 19 -12 27 -9 8 3 14 0 14 -6 0
-6 11 -17 25 -23 14 -6 25 -18 26 -27 0 -10 2 -12 6 -3 2 6 13 12 23 12 10 0
21 4 24 9 3 5 23 3 43 -5 21 -7 45 -13 53 -13 8 0 -3 7 -25 15 -22 7 -48 18
-57 24 -10 6 -18 6 -18 1 0 -16 -34 -7 -54 14 -10 11 -22 19 -28 17 -6 -1 -6
4 0 14 7 13 2 25 -23 49 -36 37 -65 121 -38 111 10 -4 13 -2 10 8 -3 8 0 17 8
20 8 3 17 -3 20 -15 4 -10 11 -19 17 -19 5 0 8 6 5 14 -6 15 27 76 41 76 5 0
13 9 18 20 9 20 10 19 28 -12 l19 -33 -23 20 -23 20 7 -25 c3 -14 3 -19 0 -12
-8 17 -17 15 -33 -9 -11 -19 -11 -21 3 -16 9 4 16 3 16 -1 0 -4 14 -15 31 -25
43 -24 31 -31 -17 -11 l-39 16 30 -33 c17 -17 23 -30 14 -26 -9 3 -21 2 -28
-3 -32 -19 51 -100 102 -100 53 0 67 -17 21 -25 -59 -10 -63 -13 -19 -14 23
-1 55 -11 75 -23 36 -22 64 -32 56 -19 -11 17 -14 61 -4 61 5 0 8 -6 5 -14 -6
-16 16 -40 26 -29 4 3 7 1 7 -5 0 -7 5 -12 10 -12 6 0 10 7 10 15 0 21 13 19
35 -5 13 -15 22 -17 36 -9 11 5 19 6 19 2 0 -13 62 -46 92 -49 17 -2 43 -20
65 -45 51 -56 57 -67 72 -119 7 -25 17 -50 23 -57 22 -27 44 -81 48 -118 6
-60 5 -259 -2 -353 -3 -45 -2 -85 3 -88 5 -3 9 4 9 15 0 30 28 53 50 41 15 -8
19 -5 22 15 3 13 1 28 -4 33 -11 11 30 64 44 56 10 -7 9 14 -8 93 -3 17 1 60
9 95 16 71 23 283 8 274 -5 -4 -12 7 -16 24 -4 17 -11 28 -16 24 -5 -3 -9 6
-9 19 0 32 -10 40 -25 20 -11 -15 -12 -13 -12 11 0 15 -10 38 -23 50 -12 13
-17 26 -12 30 5 3 21 -11 36 -32 21 -30 26 -33 26 -16 0 12 -9 33 -20 47 -25
32 -25 41 -1 27 30 -16 33 1 15 94 l-17 85 -31 -5 c-27 -5 -29 -4 -15 8 9 7
16 18 15 23 0 14 -44 35 -72 35 -18 0 -24 6 -24 21 0 16 4 19 20 14 17 -5 20
-2 20 24 0 25 -4 31 -21 31 -11 0 -28 4 -37 9 -9 4 -36 11 -59 14 -35 4 -42 2
-46 -14 -3 -11 -1 -17 4 -13 17 10 9 -11 -10 -28 -14 -11 -22 -13 -30 -5 -15
15 -21 5 -14 -21 3 -12 9 -19 14 -16 5 3 9 2 10 -3 0 -4 2 -19 3 -33 5 -38
-14 -42 -42 -9 -18 23 -27 27 -37 19 -11 -9 -14 -4 -17 27 -2 21 -7 38 -13 38
-5 0 -15 4 -22 8 -15 10 -25 -6 -17 -30 5 -15 4 -15 -5 -3 -6 8 -11 25 -11 37
0 17 5 21 20 18 11 -2 25 -7 31 -11 7 -4 7 1 -1 16 -6 12 -14 19 -18 16 -3 -3
-15 0 -27 8 -12 8 -40 18 -61 22 -21 3 -46 13 -55 20 -9 8 -18 12 -21 9z m-38
-36 c0 -6 7 -9 15 -5 19 7 47 -3 39 -15 -3 -5 1 -7 8 -4 19 8 68 -42 75 -76 3
-16 10 -32 14 -35 12 -7 12 -24 0 -24 -5 0 -14 14 -21 30 -7 17 -21 35 -31 41
-23 12 -24 2 -5 -37 7 -16 16 -44 20 -63 5 -29 4 -32 -9 -21 -12 10 -15 10
-15 -1 -1 -8 -7 1 -15 19 -18 40 -29 41 -23 2 6 -42 -6 -37 -31 13 -12 23 -21
35 -22 27 0 -8 -5 -2 -10 14 -5 20 -4 34 3 43 8 10 6 17 -8 28 -16 13 -17 14
-1 9 10 -4 17 -1 17 6 0 6 5 8 11 4 8 -4 7 0 -1 15 -6 12 -15 19 -19 17 -4 -3
-8 1 -8 9 0 8 4 15 9 15 4 0 8 -5 8 -11z m120 -9 c0 -5 -2 -10 -4 -10 -3 0 -8
5 -11 10 -3 6 -1 10 4 10 6 0 11 -4 11 -10z m285 -31 c-7 -10 -35 -1 -35 11 0
5 9 6 20 3 11 -3 17 -9 15 -14z m65 -19 c0 -5 -5 -10 -11 -10 -5 0 -7 5 -4 10
3 6 8 10 11 10 2 0 4 -4 4 -10z m-514 -61 l29 -32 -37 24 c-21 13 -38 27 -38
32 0 15 17 6 46 -24z m404 -24 c-7 -9 -15 -13 -18 -10 -3 2 1 11 8 20 7 9 15
13 18 10 3 -2 -1 -11 -8 -20z m50 13 c0 -7 -4 -19 -9 -27 -11 -17 -25 3 -17
24 7 18 26 20 26 3z m60 -37 c0 -6 -4 -11 -10 -11 -5 0 -10 4 -10 9 0 5 -3 18
-7 28 -6 17 -6 17 10 1 9 -9 17 -21 17 -27z m-826 -45 c10 4 16 1 16 -9 0 -8
-6 -17 -12 -20 -24 -7 -48 5 -48 25 0 16 3 18 14 9 7 -6 21 -9 30 -5z m786 -5
c0 -6 -4 -13 -10 -16 -5 -3 -10 1 -10 9 0 9 5 16 10 16 6 0 10 -4 10 -9z
m-291 -63 c6 -18 7 -28 2 -23 -10 12 -25 55 -18 55 3 0 10 -15 16 -32z m374 2
c12 -14 13 -20 4 -20 -14 0 -37 20 -37 32 0 14 15 9 33 -12z m32 -68 c-3 -3
-11 0 -18 7 -9 10 -8 11 6 5 10 -3 15 -9 12 -12z m-14 -18 c10 -9 15 -22 12
-30 -3 -8 1 -22 8 -32 12 -15 11 -15 -7 1 -20 17 -22 17 -28 1 -4 -9 0 -24 9
-34 29 -32 15 -31 -25 2 -40 33 -52 55 -26 45 10 -4 13 -1 9 9 -3 7 -9 14 -15
14 -5 0 -6 5 -2 11 3 6 17 8 32 4 22 -5 24 -4 13 9 -17 21 -3 21 20 0z m-41
-120 c6 -14 10 -35 10 -46 0 -19 -1 -19 -20 5 -21 27 -27 67 -10 67 6 0 15
-12 20 -26z m110 -196 c0 -7 5 -6 15 2 13 11 14 10 10 -2 -3 -8 -1 -27 5 -43
16 -43 7 -39 -33 15 -42 56 -45 65 -17 50 11 -6 20 -16 20 -22z m57 -10 c-3
-8 -6 -5 -6 6 -1 11 2 17 5 13 3 -3 4 -12 1 -19z"/>
<path d="M1533 2263 c-7 -3 -13 -10 -13 -15 0 -6 3 -8 7 -5 3 4 12 2 19 -4 9
-7 12 -6 10 5 -3 20 -8 24 -23 19z"/>
<path d="M1470 2201 c0 -5 7 -11 14 -14 10 -4 13 -1 9 9 -6 15 -23 19 -23 5z"/>
<path d="M1021 2046 c7 -14 16 -26 20 -26 12 0 -6 43 -20 48 -9 3 -9 -2 0 -22z"/>
<path d="M1060 2037 c0 -36 44 -77 79 -76 l26 1 -26 11 c-15 5 -38 28 -53 50
-25 40 -26 40 -26 14z"/>
<path d="M928 1912 c-5 -17 -65 -38 -134 -46 -18 -2 -45 -13 -62 -25 -32 -23
-52 -27 -52 -11 0 6 4 10 10 10 5 0 22 8 38 18 l29 17 -33 17 -34 17 -15 -29
c-21 -41 -48 -201 -48 -280 1 -94 16 -281 25 -303 15 -38 3 -45 -33 -18 -48
36 -75 13 -46 -40 26 -49 29 -52 38 -38 12 19 39 1 59 -37 8 -16 25 -43 38
-61 22 -31 30 -69 12 -58 -18 11 -10 -7 11 -24 14 -11 21 -29 22 -59 2 -30 6
-41 15 -37 8 3 16 5 18 5 2 0 4 5 4 11 0 5 -4 8 -9 5 -5 -3 -11 13 -14 37 -5
46 -16 97 -22 108 -3 3 -12 55 -20 115 -27 195 -17 383 27 467 11 20 47 67 81
102 56 59 69 67 131 85 38 11 73 17 77 14 5 -3 9 -3 9 0 0 6 -99 56 -111 56
-4 0 -9 -8 -11 -18z"/>
<path d="M750 1908 c-14 -6 -20 -12 -14 -14 15 -6 60 11 48 18 -5 3 -20 1 -34
-4z"/>
<path d="M1248 1893 c7 -3 16 -2 19 1 4 3 -2 6 -13 5 -11 0 -14 -3 -6 -6z"/>
<path d="M835 1480 c-48 -19 -63 -69 -29 -101 13 -12 24 -31 24 -42 0 -11 7
-27 15 -36 8 -9 27 -31 41 -48 21 -27 33 -33 62 -33 21 0 44 5 52 10 11 7 4
11 -28 16 -23 3 -51 15 -63 25 -19 17 -20 19 -4 43 20 30 35 34 35 8 0 -21 18
-42 37 -42 8 0 25 11 39 25 17 17 30 23 37 17 7 -5 20 -12 31 -16 14 -5 17 -2
12 9 -5 13 0 15 30 9 35 -6 36 -6 29 17 -13 42 -32 73 -63 102 -25 24 -41 29
-118 37 -105 11 -113 11 -139 0z m185 -105 c17 -9 30 -17 30 -20 0 -2 -24 -1
-53 2 -28 3 -69 1 -90 -5 -34 -10 -37 -9 -26 5 29 34 92 42 139 18z"/>
<path d="M1499 1466 c-2 -2 -24 -6 -49 -10 -105 -14 -125 -25 -139 -80 -16
-63 -15 -66 20 -66 17 0 28 -4 24 -10 -9 -14 21 -12 46 3 18 10 23 9 36 -10
19 -28 59 -30 75 -3 17 27 36 25 50 -5 13 -28 36 -33 44 -10 4 8 12 15 19 15
22 0 31 68 12 86 -4 4 2 14 13 21 24 17 19 28 -22 49 -28 15 -119 29 -129 20z
m71 -86 c19 -12 -42 -12 -80 0 -21 7 -17 8 20 9 25 0 52 -4 60 -9z m-14 -30
c37 -14 30 -30 -8 -19 -18 5 -53 9 -78 9 -42 1 -44 2 -25 16 20 15 60 13 111
-6z"/>
<path d="M1934 1275 c-11 -8 -14 -15 -6 -15 6 0 12 -6 12 -14 0 -7 9 -16 20
-19 15 -4 22 1 26 18 11 43 -15 58 -52 30z"/>
<path d="M1439 1227 c11 -11 109 -23 98 -12 -4 5 -30 12 -57 15 -32 4 -47 3
-41 -3z"/>
<path d="M1090 993 c0 -62 73 -133 135 -133 17 0 43 7 59 15 24 13 31 13 38 3
6 -9 10 -7 14 10 4 12 14 22 23 22 14 1 14 2 -1 14 -15 11 -16 18 -7 45 6 18
9 34 6 37 -3 3 -33 -2 -67 -11 -60 -16 -64 -15 -106 4 -24 12 -55 21 -69 21
-21 0 -25 -5 -25 -27z"/>
<path d="M1766 1003 c-6 -14 -5 -15 5 -6 7 7 10 15 7 18 -3 3 -9 -2 -12 -12z"/>
<path d="M1744 957 c-6 -16 0 -54 9 -63 4 -4 7 11 7 34 0 42 -6 53 -16 29z"/>
<path d="M1008 884 c-16 -8 -28 -19 -28 -24 0 -20 33 -39 78 -45 26 -4 63 -11
82 -16 19 -5 64 -8 100 -8 36 1 56 3 45 6 -11 3 -24 9 -29 13 -5 5 -19 5 -31
0 -23 -9 -70 -1 -140 24 -41 14 -54 29 -36 41 15 9 14 25 -1 25 -7 -1 -25 -8
-40 -16z"/>
<path d="M1443 841 c-8 -14 -30 -21 -75 -27 l-63 -8 70 -7 c91 -9 107 -5 95
26 -5 12 -6 26 -3 29 4 3 2 6 -3 6 -5 0 -15 -9 -21 -19z"/>
<path d="M795 835 c4 -11 10 -69 15 -130 4 -60 11 -119 15 -130 31 -85 94
-228 117 -268 15 -26 28 -52 28 -57 0 -4 17 -22 38 -38 28 -22 42 -28 54 -21
10 6 27 5 43 -1 19 -7 24 -7 19 2 -5 8 0 9 17 4 13 -4 48 -10 78 -13 48 -5 53
-4 48 11 -4 10 -3 14 3 11 5 -3 24 8 42 25 l33 32 -27 -6 c-22 -5 -26 -3 -22
9 4 8 1 15 -5 15 -15 0 -14 16 4 33 8 9 24 13 35 10 11 -3 28 -2 37 2 17 7 16
8 -2 15 -17 7 -12 11 33 30 28 13 52 27 52 31 0 5 7 9 16 9 21 0 84 49 84 66
0 8 4 14 9 14 5 0 11 8 14 18 4 9 24 50 46 90 21 39 35 74 31 77 -4 3 -29 -16
-55 -41 -32 -30 -50 -41 -55 -34 -5 8 -9 7 -13 -4 -4 -9 -13 -16 -22 -16 -16
0 -30 -10 -63 -42 -10 -10 -32 -18 -50 -20 -18 -1 -32 -6 -32 -10 0 -5 -12 -5
-26 -2 -15 4 -29 2 -33 -4 -4 -7 -19 -6 -46 4 -22 8 -46 12 -52 9 -7 -2 -13 0
-13 4 0 5 -9 7 -21 4 -11 -3 -52 5 -91 18 -55 18 -78 32 -109 67 -21 25 -37
48 -34 52 3 4 -6 15 -20 24 -14 9 -25 25 -25 36 0 11 -7 20 -15 20 -8 0 -15 4
-15 9 0 5 -6 16 -13 23 -7 7 -23 29 -36 48 -12 19 -20 26 -16 15z"/>
<path d="M1070 736 c0 -7 11 -23 24 -35 44 -41 236 -53 266 -16 10 12 9 15 -6
15 -115 1 -208 12 -244 29 -28 13 -40 15 -40 7z"/>
<path d="M702 538 c-19 -12 -50 -25 -70 -29 -150 -32 -184 -43 -222 -70 -14
-10 -43 -23 -65 -28 -22 -6 -101 -28 -175 -50 -74 -22 -143 -41 -152 -41 -16
0 -18 -14 -18 -160 l0 -160 558 0 557 0 -55 52 c-256 241 -278 266 -327 391
-26 66 -26 70 -9 82 10 8 24 11 31 9 7 -3 16 0 21 7 5 8 2 11 -8 6 -9 -3 -20
-1 -24 3 -5 5 -23 0 -42 -12z"/>
<path d="M1610 501 c0 -5 7 -14 15 -21 22 -18 19 -124 -4 -175 -10 -22 -54
-94 -97 -160 -43 -66 -83 -126 -87 -132 -6 -10 102 -13 528 -13 l535 0 0 24
c0 31 -81 141 -117 159 -15 8 -59 24 -98 37 -98 32 -175 64 -287 121 -53 27
-121 55 -150 63 -47 12 -82 27 -210 91 -16 8 -28 10 -28 6z"/>
<path d="M1330 295 c-7 -8 -8 -15 -2 -15 5 0 15 7 22 15 7 8 8 15 2 15 -5 0
-15 -7 -22 -15z"/>
</g>
</svg>
